<svg width="84" height="108" viewBox="0 0 84 108" fill="none" xmlns="http://www.w3.org/2000/svg">
<g clip-path="url(#clip0_2003_2582)">
<path d="M12.1661 90.8143V83.0645L9.51866 88.6897L6.97024 83.0645V90.8143H4.87207V78.937H7.18186L9.51416 84.3456L11.9455 78.937H14.2733V90.8143" fill="black"/>
<path d="M16.1865 90.8143H18.3027V78.937H16.1865V90.8143Z" fill="black"/>
<path d="M23.9044 80.7369V90.8143H21.7927V80.7369H19.2578V78.937H26.4528V80.7369" fill="black"/>
<path d="M30.3697 91.1392C27.6141 91.1392 26.6686 89.3304 26.5605 87.0974H28.5732C28.5732 88.171 29.1045 89.2176 30.3697 89.2176C31.4278 89.2176 32.0626 88.6898 32.0626 87.8508C32.0626 87.0974 31.5358 86.7817 29.3116 85.5186C27.7222 84.5578 26.6686 83.606 26.6686 81.9098C26.6686 80.1055 27.8348 78.8379 30.2706 78.8379C32.9091 78.8379 33.8636 80.5295 33.9717 82.5414H31.86C31.86 81.5896 31.3332 80.6287 30.2706 80.6287C29.3161 80.6287 28.7893 81.0663 28.7893 81.8016C28.7893 82.6496 29.4241 83.0692 31.1126 83.9262C33.0217 84.9953 34.1833 85.8299 34.1833 87.7515C34.1833 89.9709 32.3913 91.1392 30.3742 91.1392" fill="black"/>
<path d="M39.1907 91.0173C37.2906 91.0173 35.0664 90.2775 35.0664 87.0928V78.937H37.1826V87.0928C37.1826 88.3694 37.8174 89.1182 39.1907 89.1182C40.3614 89.1182 41.0097 88.3694 41.0097 87.0928V78.937H43.1169V87.0928C43.1169 90.1738 41.0097 91.0173 39.1952 91.0173" fill="black"/>
<path d="M48.1907 85.6177H47.3487V83.7141H48.1907C49.2533 83.7141 49.8791 83.2901 49.8791 82.2345C49.8791 81.179 49.1407 80.7414 48.1907 80.7414H46.6058V89.019H48.2943C49.4559 89.019 50.1988 88.4867 50.1988 87.2146C50.1988 86.0417 49.4559 85.6222 48.1907 85.6222M48.8256 90.8143H44.4941V78.937H48.4113C50.6266 78.937 51.9998 79.9926 51.9998 81.9052C51.9998 83.4886 50.8472 84.4539 50.3114 84.5531C51.0543 84.7742 52.4276 85.6177 52.4276 87.5259C52.4276 89.434 50.9507 90.8143 48.8301 90.8143" fill="black"/>
<path d="M72.3152 90.8143V85.6177H67.9973V90.8143H65.7686V78.937H67.9973V83.6013H72.2161V78.937H74.4404V90.8143" fill="black"/>
<path d="M53.5889 90.8143H55.7051V78.937H53.5889V90.8143Z" fill="black"/>
<path d="M76.4482 90.8143H78.5644V78.937H76.4482V90.8143Z" fill="black"/>
<path d="M60.8921 90.9136C58.1366 90.9136 57.1866 89.2174 57.083 86.8853H59.0911C59.0911 87.9499 59.6179 89.1182 60.8966 89.1182C61.9592 89.1182 62.5986 88.5859 62.5986 87.7469C62.5986 86.989 62.0718 86.5605 59.8476 85.2929C58.2582 84.4494 57.1956 83.4885 57.1956 81.7969C57.1956 79.9926 58.3572 78.7295 60.7976 78.7295C63.4451 78.7295 64.3951 80.4166 64.5031 82.424H62.495C62.378 81.3729 61.8512 80.5248 60.7976 80.5248C59.9511 80.5248 59.3118 80.9444 59.3118 81.6887C59.3118 82.433 59.9511 82.8615 61.6441 83.8224C63.5441 84.8689 64.7103 85.6177 64.7103 87.6476C64.7103 89.6776 62.9093 90.9181 60.8966 90.9181" fill="black"/>
<path d="M30.459 96.9356C28.8696 96.9356 27.9016 98.7355 27.9016 101.203C27.9016 103.67 28.8696 105.353 30.459 105.353C32.0484 105.353 33.0255 103.652 33.0255 101.203C33.0255 98.7535 32.0619 96.9356 30.459 96.9356ZM30.459 107.378C27.1677 107.378 25.6729 104.514 25.6729 101.203C25.6729 97.8919 27.1677 95.0229 30.459 95.0229C33.7504 95.0229 35.2497 97.8874 35.2497 101.203C35.2497 104.518 33.7639 107.378 30.459 107.378Z" fill="black"/>
<path d="M57.9424 107.063L54.4349 100.675H55.0653C55.8127 100.675 57.0914 100.459 57.0914 98.7401C57.0914 97.2515 55.8127 96.9402 54.9572 96.9402H53.683V107.067H51.5488V95.1313H55.493C57.8253 95.1313 59.4192 96.2997 59.4192 98.5371C59.4192 100.775 58.1495 101.519 57.4021 101.848L60.4908 107.067" fill="black"/>
<path d="M64.1375 107.167C61.3685 107.167 60.4139 105.475 60.2969 103.116H62.323C62.323 104.185 62.8543 105.353 64.133 105.353C65.1956 105.353 65.8485 104.821 65.8485 103.982C65.8485 103.229 65.2992 102.796 63.0704 101.514C61.472 100.675 60.4094 99.7236 60.4094 98.0049C60.4094 96.196 61.5756 94.9194 64.025 94.9194C66.6904 94.9194 67.654 96.6156 67.7485 98.65H65.6233C65.6233 97.5719 65.0966 96.7328 64.025 96.7328C63.174 96.7328 62.5301 97.1524 62.5301 97.8876C62.5301 98.6229 63.174 99.065 64.8759 100.03C66.794 101.09 67.9692 101.844 67.9692 103.878C67.9692 105.913 66.1591 107.167 64.133 107.167" fill="black"/>
<path d="M45.9608 96.9356C44.3624 96.9356 43.4033 98.7355 43.4033 101.203C43.4033 103.67 44.3624 105.353 45.9608 105.353C47.5592 105.353 48.5092 103.652 48.5092 101.203C48.5092 98.7535 47.5592 96.9356 45.9608 96.9356ZM45.9608 107.378C42.6649 107.378 41.1836 104.514 41.1836 101.203C41.1836 97.8919 42.6649 95.0229 45.9608 95.0229C49.2566 95.0229 50.7424 97.8874 50.7424 101.203C50.7424 104.518 49.2656 107.378 45.9608 107.378Z" fill="black"/>
<path d="M39.2211 96.936V107.059H37.0914V96.936H34.543V95.1226H41.783V96.936" fill="black"/>
<path d="M22.8093 107.063V99.2725L20.1438 104.943L17.5863 99.2725V107.063H15.4521V95.127H17.798L20.1438 100.563L22.5886 95.127H24.9434V107.063" fill="black"/>
<path d="M41.6576 48.2852L27.7764 24.1922L41.6576 0L55.6424 24.1922" fill="#EE1D23"/>
<path d="M55.642 72.3692L41.6572 48.2808H69.5323L83.4225 72.3692" fill="#EE1D23"/>
<path d="M27.7715 72.3692H0L13.8812 48.2808H41.6528" fill="#EE1D23"/>
</g>
<defs>
<clipPath id="clip0_2003_2582">
<rect width="83.4181" height="107.379" fill="white"/>
</clipPath>
</defs>
</svg>
