<svg width="129" height="105" viewBox="0 0 129 105" fill="none" xmlns="http://www.w3.org/2000/svg">
<g clip-path="url(#clip0_2003_2622)">
<path d="M64.1885 93.3462C64.1704 87.0595 69.2682 81.9895 75.6417 81.9805C81.8654 81.994 86.9723 87.0595 87.0949 93.3462C86.9723 99.5609 81.8654 104.631 75.6417 104.716C69.2682 104.631 64.1704 99.5609 64.1885 93.3462ZM75.6417 100.53C79.0826 100.476 81.9335 97.267 81.9698 93.3507C81.9335 89.3533 79.0826 86.1446 75.6417 86.1671C72.0555 86.1446 69.2001 89.3533 69.3136 93.3507C69.2047 97.2715 72.0555 100.48 75.6417 100.53Z" fill="#ED1A3B"/>
<path d="M100.051 86.7667V104.117H95.2297V86.7667H88.2979V82.8774H106.683V86.7667H100.051Z" fill="#ED1A3B"/>
<path d="M112.402 99.3311L110.6 104.122H104.876L113.914 82.8818H119.938L128.677 104.122H122.952L121.146 99.3311H112.402ZM116.928 95.7393H119.938L116.928 87.9608L113.914 95.7393H116.928Z" fill="#ED1A3B"/>
<path d="M11.4486 86.7667V104.117H6.62768V86.7667H0V82.8774H18.0809V86.7667H11.4486Z" fill="#ED1A3B"/>
<path d="M19.2842 93.3462C19.2933 87.0595 24.3957 81.9895 30.7328 81.9805C36.9883 81.994 42.0952 87.0595 42.186 93.3462C42.0952 99.5609 36.9883 104.631 30.7328 104.716C24.3957 104.631 19.2933 99.5609 19.2842 93.3462ZM30.7328 100.53C34.2101 100.476 37.0609 97.267 37.0609 93.3507C37.0609 89.3533 34.2101 86.1446 30.7328 86.1671C27.1784 86.1446 24.3276 89.3533 24.4093 93.3507C24.3276 97.2715 27.1784 100.48 30.7328 100.53Z" fill="#ED1A3B"/>
<path d="M53.0395 104.117H55.4454V96.0368L63.8844 82.8774H58.4642L53.0395 91.8502L47.9144 82.8774H42.1855L50.629 96.0368V104.117H53.0395Z" fill="#ED1A3B"/>
<path d="M4.5127 36.1388C4.5127 56.0626 30.7783 72.273 63.0632 72.273C95.3482 72.273 121.609 56.0626 121.609 36.1388C121.609 16.2149 95.3437 0 63.0587 0C30.7737 0 4.5127 16.2104 4.5127 36.1388ZM5.08013 36.1388C5.08013 16.5213 31.087 0.56333 63.0587 0.56333C95.0304 0.56333 121.037 16.5213 121.037 36.1388C121.037 55.7562 95.0259 71.7097 63.0587 71.7097C31.0915 71.7097 5.08013 55.7517 5.08013 36.1388Z" fill="#231F20"/>
<path d="M57.5063 6.67886C44.1148 7.49005 34.0371 11.0593 32.4346 15.5569C32.2803 15.9941 32.2031 16.4267 32.2031 16.8594C32.2031 17.5579 32.4074 18.2519 32.8114 18.9369C34.6363 22.024 40.4469 24.6018 48.7542 26.0078L49.0356 26.0574L49.081 25.778C50.5019 17.1928 53.6432 10.4149 57.7061 7.18811L58.4052 6.63379L57.5109 6.68787L57.5063 6.67886ZM33.2971 18.6485C32.9476 18.0581 32.7706 17.4542 32.7706 16.8503C32.7706 16.4808 32.8341 16.1113 32.9703 15.7417C34.4456 11.6136 44.1738 8.17957 56.7482 7.30077C52.926 10.7438 49.9708 17.2424 48.5771 25.3949C40.7011 24.0294 34.9949 21.5192 33.2971 18.6485Z" fill="#231F20"/>
<path d="M55.5496 26.5217L55.4951 26.8282L55.8083 26.8507C58.1689 27.031 60.6066 27.1211 63.0579 27.1211C65.5093 27.1211 67.947 27.031 70.3121 26.8507L70.6253 26.8282L70.5708 26.5217C69.2816 19.3336 66.4035 14.8721 63.0625 14.8721C59.7214 14.8721 56.8433 19.3336 55.5541 26.5217H55.5496ZM63.0579 15.4309C66.0585 15.4309 68.6778 19.595 69.9398 26.3054C67.6928 26.4677 65.3822 26.5533 63.0579 26.5533C60.7337 26.5533 58.4231 26.4632 56.176 26.3054C57.438 19.5995 60.0573 15.4309 63.0579 15.4309Z" fill="#231F20"/>
<path d="M68.4146 7.17905C72.4729 10.4103 75.6188 17.1838 77.0351 25.7689L77.0805 26.0484L77.3619 25.9988C85.6692 24.5972 91.4843 22.0194 93.3047 18.9279C93.9584 17.8237 94.0855 16.6836 93.6769 15.5479C92.0699 11.0548 81.9968 7.4855 68.6052 6.6698L67.7109 6.61572L68.41 7.17004L68.4146 7.17905ZM69.3724 7.30073C81.9468 8.18403 91.6704 11.6136 93.1458 15.7417C93.2774 16.1112 93.3455 16.4808 93.3455 16.8503C93.3455 17.4542 93.1685 18.0536 92.8189 18.6439C91.1257 21.5147 85.4195 24.0249 77.539 25.3904C76.1453 17.2379 73.1947 10.7393 69.3679 7.29623L69.3724 7.30073Z" fill="#231F20"/>
<path d="M23.4831 19.3605C17.4047 24.4125 14.1953 30.3973 14.1953 36.666C14.1953 51.538 32.6121 64.116 57.0346 65.9277L57.8971 65.9907L57.2389 65.4319C51.6871 60.7135 48.2325 49.6046 48.2325 36.4452L48.2825 33.8809L48.0464 33.8359C34.5731 31.4338 25.3398 25.9447 23.9462 19.5138L23.8463 19.0586L23.4877 19.3605H23.4831ZM14.7628 36.666C14.7628 30.6857 17.7997 24.9668 23.524 20.0861C25.2762 26.5081 34.446 31.9341 47.7059 34.3451C47.6969 34.7327 47.6651 36.4497 47.6651 36.4497C47.6651 49.2756 50.9426 60.1862 56.2584 65.2832C32.5485 63.2778 14.7628 51.0738 14.7628 36.666Z" fill="#231F20"/>
<path d="M54.8193 35.0438V35.3682C54.8193 46.8962 58.4373 55.9275 63.0585 55.9275C67.6798 55.9275 71.3023 46.8962 71.3023 35.3682L71.2932 34.7373L70.9891 34.7643C68.4015 34.9897 65.7368 35.1023 63.0585 35.1023C60.3802 35.1023 57.711 34.9897 55.128 34.7643L54.8239 34.7373V35.0438H54.8193ZM55.3822 35.3727V35.3502C57.888 35.5575 60.4665 35.6702 63.0585 35.6702C65.6506 35.6702 68.2245 35.5575 70.7348 35.3502V35.3727C70.7348 46.5853 67.362 55.3687 63.0585 55.3687C58.7551 55.3687 55.3822 46.5853 55.3822 35.3727Z" fill="#231F20"/>
<path d="M102.175 19.5182C100.782 25.9491 91.5482 31.4382 78.075 33.8403L77.8389 33.8808L77.8843 36.4496C77.8843 49.609 74.4343 60.7134 68.878 65.4363L68.2197 65.9951L69.0822 65.9321C93.5048 64.1204 111.922 51.5424 111.922 36.6704C111.922 30.4017 108.708 24.4169 102.629 19.3649L102.271 19.063L102.171 19.5182H102.175ZM102.597 20.086C108.322 24.9667 111.359 30.6856 111.359 36.6659C111.359 51.0692 93.5729 63.2731 69.863 65.2831C75.1742 60.1861 78.4518 49.2755 78.4518 36.4496C78.4518 36.4496 78.42 34.7326 78.4155 34.345C91.6754 31.934 100.845 26.508 102.597 20.086Z" fill="#231F20"/>
<path d="M102.202 14.7412C102.284 14.9756 102.361 15.2099 102.42 15.4443C102.765 16.7918 102.692 18.1212 102.252 19.4101C108.153 24.2457 111.64 30.2125 111.64 36.6661C111.64 52.7953 89.8864 65.8691 63.0579 65.8691C36.2294 65.8691 14.4761 52.7953 14.4761 36.6661C14.4761 30.2125 17.9624 24.2457 23.8638 19.4101C23.4235 18.1212 23.3508 16.7918 23.6958 15.4443C23.7594 15.2009 23.8593 14.9531 23.9773 14.7007C15.9242 20.3971 11.0352 27.8646 11.0352 36.0441C11.0352 53.904 34.3274 68.3838 63.0624 68.3838C91.7975 68.3838 115.09 53.904 115.09 36.0441C115.09 27.8826 110.228 20.4331 102.207 14.7412H102.202Z" fill="url(#paint0_linear_2003_2622)"/>
<path d="M55.8268 26.5713L54.3242 27.6484C55.559 18.3873 58.9999 12.4565 63.0582 12.4565C67.1165 12.4565 70.5575 18.3873 71.7922 27.6484L70.2897 26.5713C69.0277 19.5455 66.2677 15.1515 63.0582 15.1515C59.8488 15.1515 57.0888 19.5455 55.8268 26.5713Z" fill="url(#paint1_linear_2003_2622)"/>
<path d="M72.2374 32.8624L71.0163 35.0481C71.0163 35.1563 71.0163 35.2599 71.0163 35.3681C71.0163 46.9051 67.4482 55.648 63.054 55.648C58.6598 55.648 55.0963 46.9096 55.0963 35.3681C55.0963 35.2419 55.0963 35.1157 55.0963 34.9895L53.8751 32.8579C53.8434 33.6736 53.8252 34.5118 53.8252 35.3636C53.8252 48.4374 57.9561 58.3385 63.0495 58.3385C68.1428 58.3385 72.2737 48.4374 72.2737 35.3636C72.2737 34.5118 72.2556 33.6781 72.2238 32.8624H72.2374Z" fill="url(#paint2_linear_2003_2622)"/>
<path d="M70.2848 26.5667C67.9923 26.738 65.5773 26.8326 63.0579 26.8326C60.5384 26.8326 58.1234 26.738 55.831 26.5667L54.3329 27.6438C57.0975 27.8872 60.0164 28.0224 63.0669 28.0224C66.1175 28.0224 69.0319 27.8872 71.7964 27.6438L70.2938 26.5667H70.2848ZM96.859 15.237C95.0341 9.24771 79.9766 4.84473 63.0579 4.84473C46.1391 4.84473 31.0816 9.24771 29.2567 15.237C27.6724 20.4377 36.3247 25.2463 49.9796 27.1571L48.7947 25.7285C37.7501 23.8627 31.186 19.8834 32.7022 15.6517C34.5362 10.5186 47.8687 6.7961 63.0579 6.7961C78.2471 6.7961 91.5841 10.5231 93.4181 15.6517C94.9297 19.8834 88.3702 23.8627 77.321 25.7285L76.1362 27.1616C89.7865 25.2553 98.4433 20.4422 96.859 15.2415V15.237Z" fill="url(#paint3_linear_2003_2622)"/>
<path d="M102.257 19.41C104.513 21.2577 106.415 23.2767 107.904 25.4218C107.378 21.9337 105.975 18.7295 103.932 16.039C103.374 15.5974 102.797 15.1692 102.207 14.7456C102.289 14.98 102.366 15.2143 102.425 15.4486C102.77 16.7961 102.697 18.1256 102.257 19.4145V19.41Z" fill="#414042"/>
<path d="M23.8643 19.4101C23.424 18.1212 23.3513 16.7918 23.6963 15.4443C23.7599 15.2009 23.8597 14.9531 23.9778 14.7007C23.3604 15.1333 22.7703 15.5795 22.1937 16.0347C20.151 18.7296 18.7483 21.9338 18.2217 25.4175C19.7152 23.2723 21.6127 21.2533 23.8734 19.4056L23.8643 19.4101Z" fill="#414042"/>
<path d="M4.79395 36.1386C4.79395 16.332 30.8825 0.279297 63.0585 0.279297C95.2345 0.279297 121.323 16.332 121.323 36.1341C121.323 55.9363 95.239 71.989 63.0585 71.989C30.8779 71.989 4.79395 55.9363 4.79395 36.1386ZM63.0585 68.3837C91.789 68.3837 115.086 53.9038 115.086 36.044C115.086 18.1842 91.7936 3.70434 63.0585 3.70434C34.3234 3.70434 11.0312 18.1842 11.0312 36.044C11.0312 53.9038 34.3234 68.3837 63.0585 68.3837Z" fill="url(#paint4_linear_2003_2622)"/>
<path d="M10.6904 36.0443C10.6904 54.0619 34.1824 68.722 63.0582 68.722C91.934 68.722 115.426 54.0619 115.426 36.0443C115.426 18.0268 91.934 3.3667 63.0582 3.3667C34.1824 3.3667 10.6904 18.0268 10.6904 36.0443ZM11.3714 36.0443C11.3714 18.3963 34.5592 4.0427 63.0582 4.0427C91.5572 4.0427 114.745 18.4009 114.745 36.0443C114.745 53.6878 91.5617 68.046 63.0582 68.046C34.5546 68.046 11.3714 53.6924 11.3714 36.0443Z" fill="white"/>
<path d="M49.3721 36.4497C49.3721 19.1802 55.5004 4.84912 63.0587 4.84912C70.617 4.84912 76.7453 19.1802 76.7453 36.4497C76.7453 53.7191 70.617 68.0503 63.0587 68.0503C55.5004 68.0503 49.3721 53.9039 49.3721 36.4497ZM63.0587 58.3384C68.152 58.3384 72.2829 48.4374 72.2829 35.3636C72.2829 22.2898 68.152 12.4563 63.0587 12.4563C57.9654 12.4563 53.8344 21.7986 53.8344 35.3636C53.8344 48.9286 57.9654 58.3384 63.0587 58.3384Z" fill="url(#paint5_linear_2003_2622)"/>
<path d="M23.6917 15.444C25.1943 9.54034 43.3568 0.950684 63.0583 0.950684C82.7597 0.950684 100.296 7.08873 102.42 15.4485C104.804 24.8133 87.2992 33.2858 63.0583 33.2858C38.8173 33.2858 21.3084 24.8133 23.6917 15.444ZM63.0583 4.84893C46.1395 4.84893 31.082 9.25191 29.2571 15.2412C27.2098 21.9561 42.2356 28.0266 63.0583 28.0266C83.881 28.0266 98.9067 21.9561 96.8594 15.2412C95.0345 9.25191 79.977 4.84893 63.0583 4.84893Z" fill="url(#paint6_linear_2003_2622)"/>
<path d="M53.8699 32.8534H53.8835L55.1319 35.0437C57.6786 35.2645 60.3205 35.3862 63.0579 35.3862C65.7952 35.3862 68.4599 35.2645 71.0156 35.0437L72.2322 32.858H72.2368C69.3088 33.1284 66.2446 33.2816 63.0533 33.2816C59.8621 33.2816 56.7934 33.1284 53.8654 32.8534H53.8699ZM102.629 17.4678C102.311 24.1691 91.9473 30.0999 76.6174 32.3352H76.6265L78.1245 34.1108C93.1185 31.4339 102.983 24.8677 102.629 17.4678ZM23.487 17.4678C23.1284 24.8677 32.9973 31.4339 47.9912 34.1108L49.4893 32.3352C34.1594 30.0954 23.8002 24.1646 23.4825 17.4678H23.487Z" fill="url(#paint7_linear_2003_2622)"/>
<path d="M76.1363 27.1615L77.3211 25.7329C75.2556 13.245 69.6448 4.84912 63.0625 4.84912C69.209 4.84912 74.4113 14.3311 76.1363 27.1615Z" fill="url(#paint8_linear_2003_2622)"/>
<path d="M49.9843 27.1615C51.7093 14.3311 56.9116 4.84912 63.0581 4.84912C56.4712 4.84912 50.8604 13.245 48.7949 25.7329L49.9797 27.1615H49.9843Z" fill="url(#paint9_linear_2003_2622)"/>
<path d="M49.3714 36.4499C49.3714 35.0573 49.4123 33.6873 49.494 32.3398L47.9959 34.111C47.9687 34.8816 47.9551 35.6612 47.9551 36.4499C47.9551 54.9271 54.5918 68.0505 63.0671 68.0505C55.5088 68.0505 49.3805 53.9041 49.3805 36.4499H49.3714Z" fill="url(#paint10_linear_2003_2622)"/>
<path d="M78.1252 34.111L76.6272 32.3398H76.6226C76.6998 33.6873 76.7452 35.0619 76.7452 36.4499C76.7452 53.9041 70.6169 68.0505 63.0586 68.0505C71.5293 68.0505 78.1706 54.9316 78.1706 36.4499C78.1706 35.6612 78.1524 34.8816 78.1298 34.111H78.1252Z" fill="url(#paint11_linear_2003_2622)"/>
</g>
<defs>
<linearGradient id="paint0_linear_2003_2622" x1="63.0579" y1="64.3909" x2="63.0579" y2="23.5382" gradientUnits="userSpaceOnUse">
<stop stop-color="#D1D3D4"/>
<stop offset="0.16" stop-color="#F0F1F1"/>
<stop offset="0.26" stop-color="#E8E9EA"/>
<stop offset="0.44" stop-color="#E6E7E8"/>
<stop offset="0.56" stop-color="#CECFD0"/>
<stop offset="0.81" stop-color="#939496"/>
<stop offset="1" stop-color="#636466"/>
</linearGradient>
<linearGradient id="paint1_linear_2003_2622" x1="70.4849" y1="29.1987" x2="56.6007" y2="17.4677" gradientUnits="userSpaceOnUse">
<stop stop-color="#E6E7E8"/>
<stop offset="0.44" stop-color="#E6E7E8"/>
<stop offset="0.56" stop-color="#CECFD0"/>
<stop offset="0.81" stop-color="#939496"/>
<stop offset="1" stop-color="#636466"/>
</linearGradient>
<linearGradient id="paint2_linear_2003_2622" x1="71.8289" y1="48.3112" x2="51.7063" y2="36.607" gradientUnits="userSpaceOnUse">
<stop stop-color="#E6E7E8"/>
<stop offset="0.44" stop-color="#E6E7E8"/>
<stop offset="0.56" stop-color="#CECFD0"/>
<stop offset="0.81" stop-color="#939496"/>
<stop offset="1" stop-color="#636466"/>
</linearGradient>
<linearGradient id="paint3_linear_2003_2622" x1="63.0579" y1="33.2591" x2="63.0579" y2="11.1225" gradientUnits="userSpaceOnUse">
<stop stop-color="#E6E7E8"/>
<stop offset="0.44" stop-color="#E6E7E8"/>
<stop offset="0.56" stop-color="#CECFD0"/>
<stop offset="0.81" stop-color="#939496"/>
<stop offset="1" stop-color="#636466"/>
</linearGradient>
<linearGradient id="paint4_linear_2003_2622" x1="63.0585" y1="0.279297" x2="63.0585" y2="71.989" gradientUnits="userSpaceOnUse">
<stop stop-color="#C7C8CA"/>
<stop offset="0.04" stop-color="#D3D4D6"/>
<stop offset="0.12" stop-color="#E8E9EA"/>
<stop offset="0.15" stop-color="#EFF0F0"/>
<stop offset="0.21" stop-color="#F1F2F2"/>
<stop offset="0.55" stop-color="#F1F2F2"/>
<stop offset="0.61" stop-color="#CCCDCE"/>
<stop offset="0.69" stop-color="#A6A7A9"/>
<stop offset="0.77" stop-color="#898A8B"/>
<stop offset="0.85" stop-color="#747576"/>
<stop offset="0.93" stop-color="#67686A"/>
<stop offset="1" stop-color="#636466"/>
</linearGradient>
<linearGradient id="paint5_linear_2003_2622" x1="63.0587" y1="0.279387" x2="63.0587" y2="71.9846" gradientUnits="userSpaceOnUse">
<stop stop-color="#C7C8CA"/>
<stop offset="0.04" stop-color="#D3D4D6"/>
<stop offset="0.12" stop-color="#E8E9EA"/>
<stop offset="0.15" stop-color="#EFF0F0"/>
<stop offset="0.21" stop-color="#F1F2F2"/>
<stop offset="0.55" stop-color="#F1F2F2"/>
<stop offset="0.61" stop-color="#CCCDCE"/>
<stop offset="0.69" stop-color="#A6A7A9"/>
<stop offset="0.77" stop-color="#898A8B"/>
<stop offset="0.85" stop-color="#747576"/>
<stop offset="0.93" stop-color="#67686A"/>
<stop offset="1" stop-color="#636466"/>
</linearGradient>
<linearGradient id="paint6_linear_2003_2622" x1="63.0583" y1="0.283701" x2="63.0583" y2="71.9934" gradientUnits="userSpaceOnUse">
<stop stop-color="#C7C8CA"/>
<stop offset="0.04" stop-color="#D3D4D6"/>
<stop offset="0.12" stop-color="#E8E9EA"/>
<stop offset="0.15" stop-color="#EFF0F0"/>
<stop offset="0.21" stop-color="#F1F2F2"/>
<stop offset="0.55" stop-color="#F1F2F2"/>
<stop offset="0.61" stop-color="#CCCDCE"/>
<stop offset="0.69" stop-color="#A6A7A9"/>
<stop offset="0.77" stop-color="#898A8B"/>
<stop offset="0.85" stop-color="#747576"/>
<stop offset="0.93" stop-color="#67686A"/>
<stop offset="1" stop-color="#636466"/>
</linearGradient>
<linearGradient id="paint7_linear_2003_2622" x1="63.0579" y1="15.1514" x2="63.0579" y2="35.589" gradientUnits="userSpaceOnUse">
<stop stop-color="#E6E7E8"/>
<stop offset="1" stop-color="#6D6E71"/>
</linearGradient>
<linearGradient id="paint8_linear_2003_2622" x1="70.1895" y1="0.279388" x2="70.1895" y2="35.3861" gradientUnits="userSpaceOnUse">
<stop stop-color="#E6E7E8"/>
<stop offset="0.44" stop-color="#E6E7E8"/>
<stop offset="0.56" stop-color="#CECFD0"/>
<stop offset="0.81" stop-color="#939496"/>
<stop offset="1" stop-color="#636466"/>
</linearGradient>
<linearGradient id="paint9_linear_2003_2622" x1="55.9265" y1="0.279388" x2="55.9265" y2="35.3861" gradientUnits="userSpaceOnUse">
<stop stop-color="#E6E7E8"/>
<stop offset="0.44" stop-color="#E6E7E8"/>
<stop offset="0.56" stop-color="#CECFD0"/>
<stop offset="0.81" stop-color="#939496"/>
<stop offset="1" stop-color="#636466"/>
</linearGradient>
<linearGradient id="paint10_linear_2003_2622" x1="55.5043" y1="0.279604" x2="55.5043" y2="58.3387" gradientUnits="userSpaceOnUse">
<stop stop-color="#E6E7E8"/>
<stop offset="0.44" stop-color="#E6E7E8"/>
<stop offset="0.56" stop-color="#CECFD0"/>
<stop offset="0.81" stop-color="#939496"/>
<stop offset="1" stop-color="#636466"/>
</linearGradient>
<linearGradient id="paint11_linear_2003_2622" x1="70.6169" y1="0.279604" x2="70.6169" y2="58.3387" gradientUnits="userSpaceOnUse">
<stop stop-color="#E6E7E8"/>
<stop offset="0.44" stop-color="#E6E7E8"/>
<stop offset="0.56" stop-color="#CECFD0"/>
<stop offset="0.81" stop-color="#939496"/>
<stop offset="1" stop-color="#636466"/>
</linearGradient>
<clipPath id="clip0_2003_2622">
<rect width="128.677" height="104.716" fill="white"/>
</clipPath>
</defs>
</svg>
